<svg width="153" height="37" viewBox="0 0 153 37" fill="none" xmlns="http://www.w3.org/2000/svg">
<g clip-path="url(#clip0_788_625618)">
<path d="M138.968 13.7012H139.806L140.1 12.89H138.968V12.1429H140.376L140.671 11.3317H137.812V15.0396H138.968V13.7012Z" fill="white"/>
<path d="M142.186 11.3317H141.026V15.0396H142.186V11.3317Z" fill="white"/>
<path d="M144.143 13.7012H144.976L145.271 12.89H144.143V12.1429H145.547L145.842 11.3317H142.982V15.0396H144.143V13.7012Z" fill="white"/>
<path d="M146.385 15.0396L146.528 14.5446H147.84L147.992 15.0396H149.161L147.803 11.3317H146.601L145.243 15.0396H146.385ZM147.186 12.2896L147.646 13.8342H146.726L147.186 12.2896Z" fill="white"/>
<path d="M148.756 12.2804C148.806 12.3308 148.866 12.3713 148.931 12.3996C149 12.4309 149.076 12.4466 149.152 12.4454C149.227 12.4462 149.301 12.4305 149.369 12.3996C149.5 12.3419 149.605 12.2372 149.663 12.1062C149.695 12.0388 149.71 11.9652 149.709 11.8908C149.71 11.815 149.695 11.7399 149.663 11.6708C149.635 11.6057 149.594 11.5466 149.543 11.4966C149.494 11.4453 149.434 11.4047 149.369 11.3775C149.3 11.3473 149.225 11.3317 149.15 11.3317C149.075 11.3317 149 11.3473 148.931 11.3775C148.8 11.4352 148.694 11.5398 148.636 11.6708C148.605 11.7399 148.589 11.815 148.59 11.8908C148.589 11.9652 148.605 12.0388 148.636 12.1062C148.664 12.1719 148.705 12.2312 148.756 12.2804V12.2804ZM148.756 11.7121C148.777 11.6578 148.808 11.608 148.848 11.5654C148.887 11.5272 148.932 11.4962 148.982 11.4737C149.034 11.4513 149.091 11.4404 149.148 11.4416C149.203 11.4407 149.258 11.4517 149.309 11.4737C149.359 11.495 149.404 11.5262 149.442 11.5654C149.482 11.608 149.513 11.6578 149.534 11.7121C149.577 11.8274 149.577 11.9542 149.534 12.0696C149.514 12.1226 149.482 12.171 149.442 12.2116C149.406 12.2523 149.36 12.2837 149.309 12.3033C149.258 12.3268 149.203 12.3393 149.148 12.34C149.09 12.3398 149.034 12.3273 148.982 12.3033C148.931 12.2825 148.886 12.2513 148.848 12.2116C148.808 12.171 148.777 12.1226 148.756 12.0696C148.713 11.9542 148.713 11.8274 148.756 11.7121V11.7121Z" fill="white"/>
<path d="M149.051 11.932H149.124L149.29 12.2024H149.41L149.24 11.9274C149.284 11.9249 149.326 11.9071 149.359 11.877C149.376 11.8624 149.389 11.8438 149.397 11.8231C149.405 11.8023 149.408 11.78 149.405 11.7579C149.408 11.7311 149.403 11.7042 149.393 11.6794C149.383 11.6547 149.366 11.6328 149.345 11.6158C149.293 11.5832 149.232 11.5672 149.17 11.5699H148.936V12.2024H149.051V11.932ZM149.051 11.6616H149.203H149.244L149.276 11.6891C149.279 11.7043 149.279 11.7198 149.276 11.7349C149.279 11.7517 149.279 11.7687 149.276 11.7854L149.249 11.8129H149.207H149.051V11.6616Z" fill="white"/>
<path d="M139.041 21.6075C139.099 21.6656 139.168 21.7109 139.244 21.7404C139.334 21.7712 139.429 21.7867 139.525 21.7862C139.62 21.7863 139.715 21.7708 139.806 21.7404C139.881 21.7098 139.95 21.6646 140.008 21.6075C140.064 21.547 140.107 21.4751 140.132 21.3966C140.161 21.3061 140.175 21.2118 140.174 21.1171C140.175 21.0222 140.161 20.9278 140.132 20.8375C140.108 20.7591 140.066 20.6873 140.009 20.6277C139.953 20.5682 139.883 20.5223 139.806 20.4937C139.715 20.4633 139.62 20.4478 139.525 20.4479C139.429 20.4474 139.334 20.4629 139.244 20.4937C139.167 20.5221 139.098 20.5676 139.041 20.6266C138.985 20.6871 138.943 20.759 138.917 20.8375C138.888 20.9278 138.874 21.0222 138.876 21.1171C138.875 21.2118 138.889 21.3061 138.917 21.3966C138.943 21.4751 138.985 21.547 139.041 21.6075V21.6075ZM139.248 20.9612C139.257 20.9141 139.274 20.869 139.299 20.8283C139.323 20.7913 139.354 20.76 139.391 20.7366C139.433 20.7157 139.478 20.7048 139.525 20.7048C139.571 20.7048 139.617 20.7157 139.658 20.7366C139.695 20.76 139.727 20.7913 139.75 20.8283C139.775 20.869 139.793 20.9141 139.801 20.9612C139.806 21.013 139.806 21.0652 139.801 21.1171C139.806 21.1689 139.806 21.2211 139.801 21.2729C139.792 21.3197 139.775 21.3647 139.75 21.4058C139.727 21.4428 139.695 21.4741 139.658 21.4975C139.617 21.5184 139.571 21.5293 139.525 21.5293C139.478 21.5293 139.433 21.5184 139.391 21.4975C139.354 21.4741 139.323 21.4428 139.299 21.4058C139.275 21.3647 139.258 21.3197 139.248 21.2729C139.241 21.2212 139.241 21.1688 139.248 21.1171C139.241 21.0654 139.241 21.0129 139.248 20.9612V20.9612Z" fill="white"/>
<path d="M140.795 21.2408H141.297V20.9979H140.795V20.7183H141.32V20.4708H140.45V21.7633H140.795V21.2408Z" fill="white"/>
<path d="M141.923 21.2408H142.425V20.9979H141.923V20.7183H142.444V20.4708H141.578V21.7633H141.923V21.2408Z" fill="white"/>
<path d="M143.075 20.4708H142.729V21.7633H143.075V20.4708Z" fill="white"/>
<path d="M143.622 21.635C143.693 21.6894 143.775 21.7284 143.862 21.7495C143.947 21.773 144.036 21.7853 144.124 21.7862C144.198 21.7942 144.272 21.7942 144.345 21.7862L144.506 21.7495V21.4837C144.455 21.5023 144.403 21.5176 144.35 21.5295C144.295 21.5363 144.239 21.5363 144.184 21.5295C144.125 21.5305 144.065 21.5212 144.009 21.502C143.957 21.4858 143.91 21.4575 143.871 21.4195C143.832 21.3845 143.802 21.3405 143.784 21.2912C143.759 21.2381 143.746 21.1802 143.747 21.1216C143.747 21.0651 143.758 21.0092 143.779 20.9566C143.796 20.9068 143.825 20.8615 143.862 20.8237C143.895 20.7847 143.938 20.7547 143.986 20.7366C144.038 20.7142 144.095 20.7033 144.152 20.7045C144.21 20.6975 144.269 20.6975 144.327 20.7045C144.385 20.7195 144.441 20.7427 144.493 20.7733L144.52 20.4937C144.458 20.4741 144.395 20.4588 144.331 20.4479C144.266 20.4408 144.199 20.4408 144.133 20.4479C144.034 20.4471 143.934 20.461 143.839 20.4891C143.752 20.5151 143.672 20.5588 143.604 20.6175C143.534 20.6732 143.481 20.7458 143.447 20.8283C143.409 20.9212 143.39 21.0211 143.392 21.1216C143.389 21.2296 143.413 21.3367 143.461 21.4333C143.499 21.5118 143.554 21.5808 143.622 21.635V21.635Z" fill="white"/>
<path d="M145.123 20.4708H144.778V21.7633H145.123V20.4708Z" fill="white"/>
<path d="M145.819 21.4883H146.307L146.403 21.7633H146.781L146.284 20.4708H145.86L145.367 21.7633H145.717L145.819 21.4883ZM146.067 20.7367L146.219 21.2408H145.897L146.067 20.7367Z" fill="white"/>
<path d="M147.89 21.5067H147.356V20.4708H147.011V21.7633H147.89V21.5067Z" fill="white"/>
<path d="M139.755 23.6975H139.221V22.6616H138.875V23.9541H139.755V23.6975Z" fill="white"/>
<path d="M140.363 22.6617H140.017V23.9542H140.363V22.6617Z" fill="white"/>
<path d="M140.878 22.8084C140.809 22.8641 140.755 22.9367 140.722 23.0192C140.683 23.1121 140.664 23.212 140.666 23.3125C140.664 23.4199 140.686 23.5265 140.731 23.6242C140.774 23.7032 140.834 23.772 140.906 23.8258C140.978 23.8803 141.062 23.9193 141.15 23.9404C141.239 23.9728 141.332 23.9929 141.426 24C141.5 24.0057 141.574 24.0057 141.647 24L141.808 23.9633V23.6929C141.758 23.7145 141.705 23.7314 141.652 23.7433C141.595 23.7503 141.538 23.7503 141.481 23.7433C141.422 23.7435 141.363 23.7342 141.306 23.7158C141.256 23.6984 141.211 23.6702 141.173 23.6333C141.132 23.5986 141.101 23.5546 141.081 23.505C141.06 23.4509 141.049 23.3934 141.049 23.3354C141.048 23.2792 141.057 23.2233 141.076 23.1704C141.097 23.1224 141.125 23.0776 141.159 23.0375C141.195 22.9993 141.239 22.9696 141.288 22.9504C141.34 22.928 141.397 22.9171 141.454 22.9183C141.512 22.9113 141.571 22.9113 141.629 22.9183C141.687 22.9333 141.743 22.9565 141.794 22.9871L141.822 22.7075C141.76 22.6885 141.697 22.6731 141.633 22.6617C141.568 22.6546 141.501 22.6546 141.435 22.6617C141.336 22.6609 141.236 22.6748 141.141 22.7029C141.046 22.7183 140.957 22.7543 140.878 22.8084V22.8084Z" fill="white"/>
<path d="M142.384 23.4179H142.918V23.175H142.384V22.9045H142.95V22.6616H142.039V23.9541H142.973V23.7112H142.384V23.4179Z" fill="white"/>
<path d="M143.586 23.0696H143.59L144.046 23.9542H144.474V22.6617H144.157L144.161 23.5371L143.719 22.6617H143.282V23.9542H143.599L143.586 23.0696Z" fill="white"/>
<path d="M144.934 23.3354C144.979 23.3652 145.029 23.3869 145.082 23.3996L145.229 23.45C145.268 23.4613 145.306 23.4783 145.34 23.5004C145.355 23.5112 145.367 23.5258 145.375 23.5426C145.383 23.5594 145.387 23.578 145.386 23.5966C145.393 23.6158 145.393 23.6371 145.386 23.6562C145.375 23.6744 145.359 23.6889 145.34 23.6975H145.271H145.192C145.127 23.705 145.06 23.705 144.994 23.6975C144.938 23.6825 144.884 23.661 144.833 23.6333L144.806 23.9221C144.869 23.9416 144.933 23.9554 144.999 23.9633H145.192C145.263 23.9625 145.334 23.9548 145.404 23.9404C145.468 23.9317 145.529 23.9099 145.584 23.8762C145.638 23.8439 145.682 23.7981 145.713 23.7433C145.748 23.6803 145.765 23.6091 145.763 23.5371C145.767 23.4712 145.751 23.4057 145.717 23.3492C145.687 23.3047 145.648 23.2672 145.602 23.2391C145.557 23.2089 145.507 23.1858 145.455 23.1704L145.307 23.1291C145.267 23.1183 145.229 23.1029 145.192 23.0833C145.179 23.0744 145.168 23.0621 145.16 23.0476C145.153 23.0331 145.15 23.017 145.151 23.0008C145.149 22.9891 145.15 22.9771 145.154 22.9659C145.158 22.9547 145.165 22.9447 145.174 22.9366C145.19 22.9193 145.211 22.9067 145.234 22.9C145.258 22.8952 145.283 22.8952 145.307 22.9H145.381C145.43 22.8953 145.479 22.8953 145.528 22.9C145.578 22.9083 145.626 22.9237 145.671 22.9458V22.68C145.622 22.6635 145.571 22.6512 145.519 22.6433C145.459 22.6384 145.399 22.6384 145.34 22.6433C145.274 22.6388 145.208 22.6388 145.142 22.6433C145.078 22.6563 145.016 22.6779 144.958 22.7075C144.904 22.7372 144.858 22.7797 144.824 22.8312C144.789 22.8892 144.771 22.9561 144.773 23.0237C144.769 23.0896 144.785 23.1551 144.819 23.2116C144.848 23.261 144.887 23.3034 144.934 23.3354V23.3354Z" fill="white"/>
<path d="M146.947 22.9045V22.6616H146.031V23.9541H146.965V23.7112H146.376V23.4179H146.915V23.175H146.376V22.9045H146.947Z" fill="white"/>
<path d="M147.269 22.6617V23.9542H147.729C147.832 23.9544 147.934 23.9421 148.033 23.9175C148.121 23.8979 148.204 23.8604 148.277 23.8075C148.348 23.7555 148.403 23.6859 148.438 23.6058C148.478 23.5099 148.497 23.4069 148.494 23.3033C148.497 23.1968 148.478 23.0907 148.438 22.9917C148.403 22.9141 148.35 22.8464 148.282 22.7946C148.209 22.7429 148.126 22.7084 148.038 22.6937C147.937 22.6708 147.833 22.66 147.729 22.6617H147.269ZM148.047 23.0146C148.116 23.0969 148.154 23.2007 148.154 23.3079C148.154 23.4151 148.116 23.5189 148.047 23.6012C147.964 23.6708 147.856 23.7053 147.748 23.6975H147.614V22.9183H147.748C147.856 22.911 147.963 22.9455 148.047 23.0146Z" fill="white"/>
<path d="M139.221 25.6912H139.354C139.489 25.6999 139.623 25.6609 139.732 25.5812C139.777 25.5452 139.813 25.499 139.837 25.4465C139.861 25.3939 139.873 25.3364 139.87 25.2787C139.875 25.2177 139.864 25.1565 139.839 25.1005C139.814 25.0445 139.776 24.9955 139.727 24.9579C139.589 24.8743 139.428 24.8374 139.267 24.8525H138.857V26.145H139.202L139.221 25.6912ZM139.221 25.0954H139.308H139.391C139.416 25.0989 139.44 25.1083 139.46 25.1229C139.48 25.1367 139.496 25.1557 139.506 25.1779C139.512 25.2052 139.512 25.2332 139.506 25.2604C139.512 25.2892 139.512 25.3187 139.506 25.3475C139.496 25.3697 139.48 25.3887 139.46 25.4025C139.44 25.417 139.416 25.4265 139.391 25.43H139.308H139.221V25.0954Z" fill="white"/>
<path d="M141.04 25.6866C141.032 25.6578 141.022 25.6301 141.007 25.6041C140.997 25.5821 140.983 25.562 140.966 25.5445C140.946 25.527 140.923 25.5144 140.897 25.5079C140.971 25.4962 141.039 25.4569 141.086 25.3979C141.128 25.3341 141.149 25.2587 141.145 25.1824C141.147 25.1331 141.136 25.0841 141.113 25.0404C141.093 24.9985 141.063 24.9622 141.026 24.9349C140.984 24.9096 140.939 24.8896 140.892 24.8754C140.837 24.8704 140.782 24.8704 140.727 24.8754H140.11V26.1679H140.459V25.6316H140.529C140.556 25.6264 140.584 25.6264 140.611 25.6316C140.637 25.6409 140.659 25.6568 140.676 25.6774C140.695 25.7026 140.711 25.7304 140.722 25.7599C140.742 25.8046 140.759 25.8506 140.773 25.8974L140.846 26.1312H141.21L141.081 25.7783C141.067 25.7508 141.053 25.7187 141.04 25.6866ZM140.777 25.3245C140.761 25.3437 140.74 25.3593 140.717 25.3704H140.634H140.459V25.077H140.547H140.644C140.669 25.0718 140.696 25.0718 140.722 25.077C140.746 25.0867 140.766 25.1025 140.782 25.1229C140.789 25.1452 140.789 25.1693 140.782 25.1916C140.792 25.2125 140.797 25.2355 140.796 25.2586C140.795 25.2818 140.789 25.3044 140.777 25.3245V25.3245Z" fill="white"/>
<path d="M142.541 25.0084C142.482 24.9513 142.414 24.9061 142.338 24.8755C142.247 24.845 142.153 24.8295 142.057 24.8296C141.962 24.8288 141.867 24.8443 141.776 24.8755C141.699 24.9049 141.628 24.9501 141.569 25.0084C141.514 25.0701 141.472 25.1416 141.445 25.2192C141.416 25.3096 141.402 25.404 141.403 25.4988C141.402 25.5921 141.416 25.6849 141.445 25.7738C141.472 25.8515 141.514 25.9232 141.569 25.9846C141.627 26.0457 141.697 26.0927 141.776 26.1221C141.957 26.1832 142.153 26.1832 142.333 26.1221C142.412 26.0927 142.483 26.0457 142.541 25.9846C142.599 25.9256 142.641 25.8532 142.665 25.7738C142.693 25.6849 142.707 25.5921 142.706 25.4988C142.708 25.404 142.694 25.3096 142.665 25.2192C142.639 25.1408 142.597 25.0688 142.541 25.0084V25.0084ZM142.347 25.6546C142.336 25.7017 142.318 25.7467 142.292 25.7875C142.271 25.824 142.241 25.8541 142.204 25.8746C142.164 25.899 142.118 25.9117 142.071 25.9113C142.026 25.9109 141.982 25.8993 141.942 25.8777C141.903 25.8561 141.87 25.8251 141.845 25.7875C141.821 25.7464 141.804 25.7015 141.795 25.6546C141.788 25.6029 141.788 25.5505 141.795 25.4988C141.788 25.4455 141.788 25.3916 141.795 25.3384C141.804 25.293 141.821 25.2495 141.845 25.21C141.869 25.173 141.9 25.1417 141.937 25.1184C141.978 25.0949 142.024 25.0838 142.071 25.0863C142.118 25.0843 142.164 25.0954 142.204 25.1184C142.24 25.1419 142.27 25.1732 142.292 25.21C142.318 25.2493 142.336 25.2927 142.347 25.3384C142.352 25.3917 142.352 25.4454 142.347 25.4988C142.352 25.5506 142.352 25.6028 142.347 25.6546Z" fill="white"/>
<path d="M144.018 24.9854C143.945 24.9344 143.862 24.9 143.774 24.8846C143.673 24.8616 143.57 24.8509 143.466 24.8525H143.005V26.145H143.466C143.568 26.1453 143.67 26.1329 143.77 26.1084C143.858 26.0887 143.941 26.0513 144.014 25.9984C144.083 25.945 144.138 25.8759 144.175 25.7967C144.214 25.7008 144.233 25.5978 144.23 25.4942C144.233 25.3876 144.215 25.2815 144.175 25.1825C144.14 25.1049 144.086 25.0372 144.018 24.9854ZM143.77 25.7921C143.686 25.8612 143.579 25.8957 143.47 25.8884H143.337V25.1092H143.47C143.579 25.1028 143.686 25.1371 143.77 25.2054C143.807 25.2444 143.835 25.2906 143.853 25.3411C143.872 25.3916 143.879 25.4453 143.876 25.4988C143.879 25.5523 143.871 25.6059 143.853 25.6563C143.835 25.7067 143.806 25.7529 143.77 25.7921V25.7921Z" fill="white"/>
<path d="M144.649 26.0441C144.701 26.0875 144.763 26.1189 144.829 26.1358C144.905 26.1565 144.984 26.1673 145.063 26.1679C145.141 26.1669 145.219 26.1561 145.294 26.1358C145.36 26.1189 145.421 26.0875 145.473 26.0441C145.523 25.9996 145.562 25.9449 145.588 25.8837C145.617 25.8109 145.632 25.7329 145.63 25.6546V24.8525H145.284V25.595C145.287 25.6362 145.287 25.6775 145.284 25.7187C145.277 25.7539 145.265 25.7879 145.248 25.8196C145.234 25.8472 145.211 25.8697 145.183 25.8837C145.149 25.9023 145.111 25.9118 145.073 25.9112C145.034 25.913 144.996 25.9035 144.962 25.8837C144.934 25.8687 144.91 25.8466 144.893 25.8196C144.878 25.787 144.866 25.7533 144.856 25.7187C144.854 25.6775 144.854 25.6362 144.856 25.595V24.8525H144.511V25.6546C144.509 25.7329 144.523 25.8109 144.552 25.8837C144.573 25.9433 144.606 25.9979 144.649 26.0441V26.0441Z" fill="white"/>
<path d="M146.878 25.8929C146.821 25.8997 146.764 25.8997 146.707 25.8929C146.648 25.8939 146.589 25.8846 146.532 25.8654C146.48 25.8492 146.433 25.8209 146.394 25.7829C146.356 25.7467 146.327 25.703 146.307 25.6546C146.284 25.6011 146.273 25.5432 146.274 25.485C146.273 25.4288 146.283 25.3729 146.302 25.32C146.318 25.2697 146.347 25.224 146.385 25.1871C146.42 25.148 146.464 25.1181 146.514 25.1C146.566 25.0767 146.623 25.0657 146.68 25.0679C146.737 25.0685 146.794 25.0762 146.85 25.0909C146.908 25.1058 146.964 25.129 147.016 25.1596L147.043 24.88L146.855 24.8296C146.79 24.8251 146.726 24.8251 146.661 24.8296C146.56 24.8289 146.459 24.8427 146.362 24.8709C146.276 24.8988 146.197 24.9423 146.127 24.9992C146.059 25.0562 146.005 25.1285 145.971 25.21C145.932 25.303 145.913 25.4028 145.915 25.5034C145.912 25.6113 145.936 25.7184 145.984 25.815C146.027 25.894 146.087 25.9628 146.159 26.0167C146.23 26.0711 146.312 26.1102 146.399 26.1313C146.484 26.1547 146.573 26.167 146.661 26.1679C146.735 26.1737 146.809 26.1737 146.882 26.1679L147.048 26.1313V25.8609L146.878 25.8929Z" fill="white"/>
<path d="M147.2 25.1091H147.522V26.145H147.867V25.1091H148.185V24.8525H147.2V25.1091Z" fill="white"/>
<path d="M135.441 8.2608V28.7391H151.896V8.2608H135.441ZM151.693 28.5833H135.579V18.5871H151.693V28.5833ZM151.693 18.4358H135.579V8.43955H151.693V18.4358Z" fill="white"/>
<path d="M17.5749 35C26.729 35 34.1498 27.6127 34.1498 18.5C34.1498 9.3873 26.729 2 17.5749 2C8.42084 2 1 9.3873 1 18.5C1 27.6127 8.42084 35 17.5749 35Z" fill="white"/>
<path d="M28.4775 21.1583H28.8965V21.25H28.7307V21.6075H28.6249V21.25H28.4591L28.4775 21.1583ZM8.70734 22.8129H7.74968C7.53789 22.8129 7.432 22.6983 7.432 22.4646V22.0888C7.42709 21.9924 7.45826 21.8977 7.51948 21.8229C7.54686 21.7886 7.58197 21.7612 7.62196 21.7429C7.66195 21.7246 7.7057 21.7159 7.74968 21.7175H8.50016C8.58001 21.7132 8.65882 21.7371 8.72279 21.7848C8.78676 21.8326 8.83182 21.9012 8.85007 21.9787L8.95597 22.3408H9.64198V21.9375C9.64585 21.814 9.62367 21.691 9.57689 21.5766C9.5301 21.4621 9.45974 21.3587 9.37034 21.2729C9.28283 21.1877 9.17911 21.1207 9.06527 21.0758C8.95143 21.031 8.82975 21.0091 8.70734 21.0117H7.59775C7.47205 21.0091 7.34715 21.0321 7.23075 21.0794C7.11435 21.1267 7.00892 21.1973 6.92094 21.2867C6.83226 21.3732 6.76208 21.4767 6.7146 21.5909C6.66713 21.7051 6.64335 21.8277 6.64469 21.9512V22.5929C6.64018 22.7187 6.66175 22.8441 6.70805 22.9612C6.75435 23.0784 6.82439 23.1848 6.91381 23.2738C7.00322 23.3628 7.11009 23.4325 7.22776 23.4786C7.34543 23.5247 7.47138 23.5462 7.59775 23.5417H8.5508C8.76259 23.5417 8.86849 23.6654 8.86849 23.9037V24.3896C8.87233 24.4836 8.84301 24.576 8.78561 24.6508C8.75751 24.6855 8.72162 24.7131 8.68083 24.7314C8.64004 24.7497 8.5955 24.7582 8.5508 24.7563H7.79112C7.71077 24.7638 7.63043 24.7418 7.56516 24.6946C7.49989 24.6473 7.45418 24.578 7.4366 24.4996L7.33531 24.0917H6.64469V24.55C6.64152 24.6737 6.66355 24.7968 6.70944 24.9118C6.75534 25.0268 6.82415 25.1313 6.91173 25.2192C6.99995 25.3063 7.10499 25.3748 7.22051 25.4205C7.33604 25.4662 7.45966 25.4882 7.58393 25.485H8.70734C8.8326 25.4864 8.95682 25.4623 9.0724 25.4142C9.18798 25.3661 9.2925 25.2951 9.37955 25.2054C9.46796 25.118 9.53762 25.0136 9.58431 24.8986C9.631 24.7835 9.65376 24.6603 9.65119 24.5362V23.7617C9.65001 23.512 9.55048 23.2727 9.37399 23.0953C9.1975 22.9179 8.95813 22.8165 8.70734 22.8129V22.8129ZM13.2839 21.2867C13.372 21.3726 13.4418 21.4754 13.4893 21.5887C13.5367 21.7021 13.5608 21.8238 13.5601 21.9467V22.8633C13.5621 22.9877 13.5386 23.1112 13.4911 23.2262C13.4436 23.3412 13.3731 23.4455 13.2839 23.5325C13.1942 23.621 13.0878 23.6908 12.9709 23.738C12.8539 23.7853 12.7287 23.8089 12.6024 23.8075H11.3685V25.4667H10.5812V21.0117H12.6024C12.7287 21.0103 12.8539 21.0339 12.9709 21.0811C13.0878 21.1283 13.1942 21.1982 13.2839 21.2867V21.2867ZM12.7682 22.0933C12.7711 21.9979 12.7383 21.9048 12.6761 21.8321C12.649 21.799 12.6144 21.7726 12.5753 21.7551C12.5361 21.7376 12.4934 21.7295 12.4505 21.7312H11.3685V23.1062H12.4505C12.4934 23.108 12.5361 23.0999 12.5753 23.0824C12.6144 23.0649 12.649 23.0385 12.6761 23.0054C12.7382 22.9309 12.7709 22.8364 12.7682 22.7396V22.0933ZM20.6459 23.6242L21.4286 25.4575H20.5906L19.877 23.7204H19.1081V25.4667H18.3162V21.0117H20.296C20.4209 21.0097 20.5449 21.0331 20.6605 21.0804C20.776 21.1276 20.8807 21.1978 20.9682 21.2867C21.0588 21.3715 21.1312 21.4737 21.1811 21.5871C21.2309 21.7005 21.2572 21.8229 21.2582 21.9467V22.7258C21.2599 22.9216 21.2021 23.1133 21.0925 23.2758C20.978 23.4301 20.8237 23.5505 20.6459 23.6242V23.6242ZM20.4525 22.0933C20.4584 21.999 20.4289 21.9059 20.3696 21.8321C20.3425 21.799 20.308 21.7726 20.2688 21.7551C20.2296 21.7376 20.1869 21.7295 20.144 21.7312H19.1081V23.0054H20.144C20.1868 23.0062 20.2292 22.9976 20.2682 22.9801C20.3072 22.9627 20.3418 22.9369 20.3696 22.9046C20.4289 22.8308 20.4584 22.7376 20.4525 22.6433V22.0933ZM21.7463 21.7312H22.8835V25.4667H23.68V21.7312H24.8264V21.0117H21.7463V21.7312ZM27.46 22.8129H26.5069C26.2952 22.8129 26.1893 22.6983 26.1893 22.4646V22.0888C26.1844 21.9924 26.2155 21.8977 26.2767 21.8229C26.3046 21.7892 26.3398 21.7621 26.3797 21.7439C26.4195 21.7256 26.4631 21.7166 26.5069 21.7175H27.2436C27.3237 21.7123 27.4029 21.7358 27.4671 21.7837C27.5313 21.8316 27.5761 21.9008 27.5935 21.9787L27.6994 22.3408H28.3854V21.9375C28.3874 21.8142 28.3643 21.6918 28.3176 21.5777C28.271 21.4635 28.2016 21.3598 28.1138 21.2729C28.0257 21.1871 27.9213 21.1198 27.8066 21.0749C27.6919 21.03 27.5694 21.0085 27.4462 21.0117H26.3412C26.0924 21.0152 25.8549 21.1155 25.6794 21.2911C25.5039 21.4667 25.4043 21.7036 25.402 21.9512V22.5929C25.4 22.7184 25.4238 22.8429 25.4722 22.9588C25.5205 23.0747 25.5922 23.1795 25.6828 23.2667C25.7703 23.3555 25.8749 23.4257 25.9905 23.473C26.1061 23.5203 26.2301 23.5436 26.355 23.5417H27.3081C27.5245 23.5417 27.6258 23.6654 27.6258 23.9037V24.3896C27.6296 24.4836 27.6003 24.576 27.5429 24.6508C27.5148 24.6855 27.4789 24.7131 27.4381 24.7314C27.3973 24.7497 27.3528 24.7582 27.3081 24.7563H26.5484C26.468 24.7638 26.3877 24.7418 26.3224 24.6946C26.2572 24.6473 26.2114 24.578 26.1939 24.4996L26.0926 24.0917H25.402V24.55C25.3994 24.674 25.4221 24.7973 25.4688 24.9123C25.5155 25.0273 25.5852 25.1317 25.6736 25.2192C25.8492 25.3829 26.0822 25.4718 26.3228 25.4667H27.4416C27.5676 25.4687 27.6927 25.4449 27.8091 25.3968C27.9256 25.3487 28.0308 25.2773 28.1184 25.1871C28.2076 25.1 28.2782 24.9958 28.3256 24.8808C28.3731 24.7657 28.3966 24.6423 28.3946 24.5179V23.7617C28.3888 23.5119 28.2865 23.2739 28.109 23.0972C27.9315 22.9206 27.6925 22.8187 27.4416 22.8129H27.46ZM29.4122 21.1583L29.2418 21.415L29.0853 21.1583H29.0162V21.5892H29.0853V21.3233C29.0853 21.3233 29.0853 21.2912 29.0853 21.2729C29.0853 21.2546 29.0853 21.305 29.1129 21.3188L29.2556 21.5342L29.3937 21.3233C29.3937 21.3233 29.3937 21.2912 29.3937 21.2729V21.5892H29.472V21.1583H29.4122ZM17.0731 21.2821C17.1626 21.3682 17.2336 21.4715 17.2819 21.5857C17.3302 21.7 17.3547 21.8227 17.3539 21.9467V24.5087C17.3545 24.6343 17.3302 24.7588 17.2823 24.875C17.2345 24.9912 17.164 25.0968 17.0751 25.1858C16.9861 25.2748 16.8803 25.3455 16.7638 25.3937C16.6473 25.4419 16.5224 25.4667 16.3963 25.4667H15.3281C15.2021 25.4687 15.077 25.4449 14.9606 25.3968C14.8441 25.3487 14.7389 25.2773 14.6513 25.1871C14.5567 25.101 14.4813 24.9962 14.4297 24.8794C14.3782 24.7626 14.3517 24.6363 14.352 24.5087V21.9467C14.3604 21.6998 14.4651 21.466 14.644 21.2948C14.8228 21.1237 15.0616 21.0287 15.3097 21.03H16.3778C16.5049 21.0219 16.6323 21.0401 16.752 21.0835C16.8717 21.1269 16.981 21.1945 17.0731 21.2821V21.2821ZM16.562 22.0933C16.5668 21.9976 16.5337 21.9038 16.4699 21.8321C16.4428 21.799 16.4082 21.7726 16.3691 21.7551C16.3299 21.7376 16.2872 21.7295 16.2443 21.7312H15.4846C15.4404 21.7294 15.3963 21.7375 15.3557 21.755C15.315 21.7724 15.2788 21.7988 15.2498 21.8321C15.1924 21.9069 15.1631 21.9993 15.167 22.0933V24.385C15.1638 24.4775 15.1931 24.5683 15.2498 24.6417C15.2777 24.6769 15.3134 24.7052 15.3542 24.7243C15.3949 24.7434 15.4396 24.7527 15.4846 24.7517H16.2443C16.288 24.7528 16.3314 24.7433 16.3707 24.7242C16.4099 24.705 16.444 24.6767 16.4699 24.6417C16.533 24.5713 16.5661 24.4792 16.562 24.385V22.0933ZM19.9 9.63583H11.3823L10.0794 11.6983H18.5924L19.9 9.63583ZM23.1229 15.8187H21.8522L20.54 17.8858H24.4397L25.7473 19.9483H28.2335L21.645 9.5625L16.3456 17.8904H10.5536L11.8842 15.8233H15.48L16.7922 13.7608H8.7672L7.44581 15.8233H9.37034L6.74598 19.9483H17.5749L21.645 13.4583L23.1229 15.8187Z" fill="black"/>
<path d="M40.4713 8.25165H55.8215L55.0434 12.7341H45.3747L44.7117 16.4971H52.5019L51.7238 20.975H43.8968L42.5156 28.73H36.834L40.4713 8.25165Z" fill="white"/>
<path d="M57.8105 8.25165H63.4966L59.8593 28.73H54.1732L57.8105 8.25165Z" fill="white"/>
<path d="M65.4855 8.25165H80.8357L80.0576 12.7341H70.3889L69.7259 16.4971H77.5161L76.738 20.975H68.911L67.5298 28.73H61.8483L65.4855 8.25165Z" fill="white"/>
<path d="M85.6242 8.22412H92.0009L95.3205 28.73H89.662L89.2016 25.1412H82.0744L80.3432 28.73H74.8597L85.6242 8.22412ZM88.6537 20.8604L87.7006 13.4812H87.5855L84.1232 20.8604H88.6537Z" fill="white"/>
<path d="M98.9991 25.5904L105.905 19.0454C107.425 17.5879 109.851 15.3787 109.851 13.4583C109.851 12.3812 109.036 11.8587 108.042 11.8587C106.2 11.8587 105.74 13.4033 105.528 14.8562H100.344C100.371 14.7692 100.518 13.8067 100.546 13.7196C101.333 9.53041 104.929 7.70166 109.078 7.70166C112.351 7.70166 115.362 9.00791 115.362 12.6746C115.362 16.7446 111.182 19.8887 108.405 22.3592L106.435 24.1054L106.407 24.2521H113.622L112.835 28.73H98.442L98.9991 25.5904Z" fill="white"/>
<path d="M115.1 24.3988C115.102 23.752 115.18 23.1076 115.33 22.4783H120.473C120.419 22.7664 120.38 23.0571 120.358 23.3492C120.358 24.5408 121.675 24.8342 122.637 24.8342C122.98 24.8253 123.317 24.7492 123.631 24.6103C123.944 24.4714 124.227 24.2724 124.463 24.0247C124.699 23.7769 124.883 23.4853 125.006 23.1665C125.129 22.8477 125.187 22.508 125.178 22.1667C125.178 20.7917 123.797 20.2188 122.577 20.2188H121.587L122.227 16.5246H123.396C124.943 16.6117 126.435 15.7363 126.435 13.7746C126.435 12.67 125.703 12.0879 124.653 12.0879C122.987 12.0879 122.259 12.8167 121.992 14.3292H116.969L117.084 13.66C117.784 9.53501 121.44 7.63751 125.413 7.63751C128.479 7.63751 131.785 9.01251 131.785 12.5829C131.785 15.1404 130.441 17.3221 127.927 18.0829L127.895 18.2296C128.755 18.4176 129.524 18.8975 130.068 19.5874C130.612 20.2772 130.899 21.1339 130.878 22.0108C130.878 26.8417 125.735 29.1654 121.73 29.0783C118.604 29.0417 115.1 28.125 115.1 24.3988Z" fill="white"/>
</g>
<defs>
<clipPath id="clip0_788_625618">
<rect width="150.873" height="33" fill="white" transform="translate(1 2)"/>
</clipPath>
</defs>
</svg>
